<svg width="161" height="33" viewBox="0 0 161 33" fill="none" xmlns="http://www.w3.org/2000/svg">
<path d="M16.1 0L19.7147 11.1248H31.412L21.9487 18.0003L25.5633 29.1252L16.1 22.2497L6.63666 29.1252L10.2513 18.0003L0.787991 11.1248H12.4853L16.1 0Z" fill="#2F3061"/>
<path d="M48.3 0L51.9146 11.1248H63.612L54.1486 18.0003L57.7633 29.1252L48.3 22.2497L38.8366 29.1252L42.4513 18.0003L32.9879 11.1248H44.6853L48.3 0Z" fill="#2F3061"/>
<path d="M80.5 0L84.1147 11.1248H95.812L86.3487 18.0003L89.9634 29.1252L80.5 22.2497L71.0367 29.1252L74.6514 18.0003L65.188 11.1248H76.8853L80.5 0Z" fill="#2F3061"/>
<path d="M112.7 0L116.315 11.1248H128.012L118.549 18.0003L122.163 29.1252L112.7 22.2497L103.237 29.1252L106.851 18.0003L97.388 11.1248H109.085L112.7 0Z" fill="#2F3061"/>
<path d="M144.9 0L148.515 11.1248H160.212L150.749 18.0003L154.363 29.1252L144.9 22.2497L135.437 29.1252L139.051 18.0003L129.588 11.1248H141.285L144.9 0Z" fill="#2F3061"/>
</svg>
