<svg width="197" height="37" viewBox="0 0 197 37" fill="none" xmlns="http://www.w3.org/2000/svg">
<path d="M19.75 0.75L24.1842 14.3969L38.5334 14.3969L26.9246 22.8312L31.3588 36.4781L19.75 28.0438L8.14128 36.4781L12.5754 22.8312L0.966675 14.3969L15.3159 14.3969L19.75 0.75Z" fill="#F7A08F"/>
<path d="M59.2503 0.75L63.6844 14.3969L78.0336 14.3969L66.4249 22.8312L70.859 36.4781L59.2503 28.0438L47.6415 36.4781L52.0757 22.8312L40.4669 14.3969L54.8161 14.3969L59.2503 0.75Z" fill="#F7A08F"/>
<path d="M98.7499 0.75L103.184 14.3969L117.533 14.3969L105.925 22.8312L110.359 36.4781L98.7499 28.0438L87.1412 36.4781L91.5753 22.8312L79.9666 14.3969L94.3158 14.3969L98.7499 0.75Z" fill="#F7A08F"/>
<path d="M138.25 0.75L142.684 14.3969L157.033 14.3969L145.424 22.8312L149.858 36.4781L138.25 28.0438L126.641 36.4781L131.075 22.8312L119.466 14.3969L133.815 14.3969L138.25 0.75Z" fill="#F7A08F"/>
<path d="M177.75 0.75L182.184 14.3969L196.533 14.3969L184.924 22.8312L189.359 36.4781L177.75 28.0438L166.141 36.4781L170.575 22.8312L158.966 14.3969L173.316 14.3969L177.75 0.75Z" fill="#F7A08F"/>
</svg>
